<svg xmlns="http://www.w3.org/2000/svg" xmlns:xlink="http://www.w3.org/1999/xlink" width="79" height="79" version="1.1" viewBox="0 0 79 79"><title>Page 1</title><desc>Created with Sketch.</desc><g id="Welcome" fill="none" fill-rule="evenodd" stroke="none" stroke-linecap="round" stroke-linejoin="round" stroke-width="1"><g id="Desktop-blue" stroke="#404040" transform="translate(-510.000000, -966.000000)"><g id="优势" transform="translate(0.000000, 654.761905)"><g id="Page-1" transform="translate(511.120954, 312.160850)"><g id="Group-9" stroke-width="1.31" transform="translate(0.476617, 0.117248)"><polyline id="Stroke-1" points="53.058 15.004 38.564 .359 24.077 14.847"/><polyline id="Stroke-3" points="61.65 53.85 76.578 38.923 61.994 24.18"/><polyline id="Stroke-5" points="23.149 62.072 38.289 77.212 53.667 61.834"/><polyline id="Stroke-7" points="14.306 24.617 0 38.923 14.689 53.612"/></g><polyline id="Stroke-10" stroke-width="1.31" points="32.45 11.192 11.241 11.038 11.241 32.87"/><polyline id="Stroke-11" stroke-width="1.31" points="66.052 32.393 66.052 11.591 44.127 11.313"/><polyline id="Stroke-12" stroke-width="1.31" points="43.651 65.756 65.575 65.756 65.575 43.355"/><polyline id="Stroke-13" stroke-width="1.31" points="11.241 44.309 11.241 66.233 32.212 66.233"/><polyline id="Stroke-14" stroke-width=".655" points="49.37 57.892 57.777 57.892 57.837 50.03"/><polyline id="Stroke-15" stroke-width=".655" points="19.581 50.028 19.581 57.892 27.446 57.892"/><polyline id="Stroke-16" stroke-width=".655" points="26.969 19.286 19.581 19.286 19.581 27.15"/><polyline id="Stroke-17" stroke-width=".655" points="57.993 27.865 58.051 19.763 48.894 19.763"/><polyline id="Stroke-18" stroke-width=".655" points="25.087 33.529 19.644 38.972 25.261 44.589"/><polyline id="Stroke-19" stroke-width=".655" points="43.928 24.811 38.903 19.713 32.792 25.824"/><polyline id="Stroke-20" stroke-width=".655" points="52.231 44.627 57.886 38.972 52.525 33.532"/><polyline id="Stroke-21" stroke-width=".655" points="32.727 52.054 38.766 58.093 43.89 52.968"/><polygon id="Stroke-22" stroke-width="1.31" points="47.973 30.01 28.875 30.01 28.875 48.121 47.841 48.121"/><path id="Stroke-23" stroke-width=".655" d="M11.2406354,11.0379301 L18.1053529,17.9026476"/><path id="Stroke-24" stroke-width=".655" d="M19.819745,19.6170397 L26.6844625,26.4817572"/><path id="Stroke-25" stroke-width=".655" d="M66.0516133,11.5907107 L59.5824881,18.0598359"/><path id="Stroke-26" stroke-width=".655" d="M57.9491209,19.6932031 L51.4799957,26.1623283"/><path id="Stroke-27" stroke-width=".655" d="M65.5749961,65.7563013 L59.3789725,59.5602777"/><path id="Stroke-28" stroke-width=".655" d="M57.9491209,58.1304261 L51.7530973,51.9344025"/><path id="Stroke-29" stroke-width=".655" d="M11.2406354,66.2329185 L18.1515848,59.3219691"/><path id="Stroke-30" stroke-width=".655" d="M19.819745,57.6538089 L26.7306943,50.7428595"/><g id="Group-35" stroke-width=".655" transform="translate(0.000000, 0.117248)"><path id="Stroke-31"/><path id="Stroke-33"/></g><g id="Group-41" stroke-width=".655" transform="translate(38.605993, 19.735146)"><path id="Stroke-36"/><path id="Stroke-37"/><path id="Stroke-39"/></g></g></g></g></g></svg>