<svg xmlns="http://www.w3.org/2000/svg" xmlns:xlink="http://www.w3.org/1999/xlink" width="120" height="121" version="1.1" viewBox="0 0 120 121"><title>Page 1</title><desc>Created with Sketch.</desc><g id="Welcome" fill="none" fill-rule="evenodd" stroke="none" stroke-linecap="round" stroke-linejoin="round" stroke-width="1"><g id="Desktop-blue" stroke="#404040" transform="translate(-413.000000, -1475.000000)"><g id="优势" transform="translate(0.000000, 1000.000000)"><g id="Page-1" transform="translate(414.000000, 476.754752)"><g id="Group-7" stroke-width="2" transform="translate(0.723486, 75.604275)"><path id="Stroke-1" d="M74.1573034,41.2386955 L74.1573034,16.6401754"/><path id="Stroke-3" d="M41.6004385,41.2386955 L41.6004385,0"/><path id="Stroke-5" d="M116.842971,41.9621814 L0.361742943,41.9621814"/></g><polyline id="Stroke-8" points="16.731 33.793 33.28 50.282 33.28 17.002"/><polyline id="Stroke-9" points="66.922 34.004 32.919 34.004 50.041 16.881"/><polyline id="Stroke-10" points="17.002 50.644 50.282 50.644 33.612 67.315"/><polyline id="Stroke-11" points="50.644 67.646 50.644 33.642 67.646 50.644"/><polygon id="Stroke-12" stroke-width="2" points="32.919 67.646 32.919 84.648 67.646 51.006 83.924 51.006 49.559 17.002 49.559 0 33.069 16.731 15.555 34.366 0 34.366"/><polyline id="Stroke-14" points="59.314 58.979 66.561 66.199 66.561 51.729"/><path id="Stroke-15" d="M74.5190463,41.6004385 L83.3216991,32.7977857"/><path id="Stroke-16" d="M100.202795,49.9205262 L82.839134,49.9205262"/><polyline id="Stroke-17" points="50.282 66.561 83.563 66.561 66.892 83.231"/><polyline id="Stroke-18" points="83.924 83.563 83.924 49.559 100.926 66.561"/><polyline id="Stroke-19" stroke-width="2" points="50.101 67.288 66.199 83.563 66.199 100.565 100.926 66.923 117.205 66.923 82.839 32.919 82.839 15.917 66.349 32.648"/></g></g></g></g></svg>